<svg width="68" height="34" viewBox="0 0 68 34" fill="none" xmlns="http://www.w3.org/2000/svg">
<path d="M3.5 2.00062C3.5 2.82904 2.82843 3.50061 2 3.50061C1.17157 3.50061 0.5 2.82904 0.5 2.00062C0.5 1.17219 1.17158 0.50061 2 0.50061C2.82842 0.50061 3.5 1.17219 3.5 2.00062Z" fill="#9871F5" stroke="#9871F5"/>
<path d="M16.2952 2.00001C16.2952 2.82843 15.6236 3.5 14.7952 3.5C13.9667 3.5 13.2952 2.82843 13.2952 2.00001C13.2952 1.17158 13.9667 0.5 14.7952 0.5C15.6236 0.5 16.2952 1.17158 16.2952 2.00001Z" fill="#9871F5" stroke="#9871F5"/>
<path d="M29.0813 2.00001C29.0813 2.82843 28.4097 3.5 27.5813 3.5C26.7529 3.5 26.0813 2.82843 26.0813 2.00001C26.0813 1.17158 26.7529 0.5 27.5813 0.5C28.4097 0.5 29.0813 1.17158 29.0813 2.00001Z" fill="#9871F5" stroke="#9871F5"/>
<path d="M41.8765 2.00001C41.8765 2.82843 41.2049 3.5 40.3765 3.5C39.548 3.5 38.8765 2.82844 38.8765 2.00001C38.8765 1.17158 39.548 0.5 40.3765 0.5C41.2049 0.5 41.8765 1.17158 41.8765 2.00001Z" fill="#9871F5" stroke="#9871F5"/>
<path d="M54.6621 2.00001C54.6621 2.82843 53.9905 3.5 53.1621 3.5C52.3337 3.5 51.6621 2.82843 51.6621 2.00001C51.6621 1.17158 52.3337 0.5 53.1621 0.5C53.9905 0.5 54.6621 1.17158 54.6621 2.00001Z" fill="#9871F5" stroke="#9871F5"/>
<path d="M67.4573 2.00001C67.4573 2.82843 66.7857 3.5 65.9573 3.5C65.1288 3.5 64.4573 2.82844 64.4573 2.00001C64.4573 1.17158 65.1288 0.5 65.9573 0.5C66.7857 0.5 67.4573 1.17158 67.4573 2.00001Z" fill="#9871F5" stroke="#9871F5"/>
<path d="M3.5 12C3.5 12.8284 2.82843 13.5 2 13.5C1.17157 13.5 0.5 12.8284 0.5 12C0.5 11.1716 1.17157 10.5 2 10.5C2.82843 10.5 3.5 11.1716 3.5 12Z" fill="#9871F5" stroke="#9871F5"/>
<path d="M16.2957 12C16.2957 12.8284 15.6241 13.5 14.7957 13.5C13.9672 13.5 13.2957 12.8284 13.2957 12C13.2957 11.1716 13.9672 10.5 14.7957 10.5C15.6241 10.5 16.2957 11.1716 16.2957 12Z" fill="#9871F5" stroke="#9871F5"/>
<path d="M29.0813 12C29.0813 12.8284 28.4097 13.5 27.5813 13.5C26.7529 13.5 26.0813 12.8284 26.0813 12C26.0813 11.1716 26.7529 10.5 27.5813 10.5C28.4097 10.5 29.0813 11.1716 29.0813 12Z" fill="#9871F5" stroke="#9871F5"/>
<path d="M41.8765 12C41.8765 12.8284 41.2049 13.5 40.3765 13.5C39.548 13.5 38.8765 12.8284 38.8765 12C38.8765 11.1716 39.548 10.5 40.3765 10.5C41.2049 10.5 41.8765 11.1716 41.8765 12Z" fill="#9871F5" stroke="#9871F5"/>
<path d="M54.6621 12C54.6621 12.8284 53.9905 13.5 53.1621 13.5C52.3337 13.5 51.6621 12.8284 51.6621 12C51.6621 11.1716 52.3337 10.5 53.1621 10.5C53.9905 10.5 54.6621 11.1716 54.6621 12Z" fill="#9871F5" stroke="#9871F5"/>
<path d="M67.4573 12C67.4573 12.8284 66.7857 13.5 65.9573 13.5C65.1288 13.5 64.4573 12.8284 64.4573 12C64.4573 11.1716 65.1288 10.5 65.9573 10.5C66.7857 10.5 67.4573 11.1716 67.4573 12Z" fill="#9871F5" stroke="#9871F5"/>
<path d="M3.5 22C3.5 22.8284 2.82843 23.5 2 23.5C1.17157 23.5 0.5 22.8284 0.5 22C0.5 21.1716 1.17158 20.5 2 20.5C2.82842 20.5 3.5 21.1716 3.5 22Z" fill="#9871F5" stroke="#9871F5"/>
<path d="M16.2957 22C16.2957 22.8284 15.6241 23.5 14.7957 23.5C13.9672 23.5 13.2957 22.8284 13.2957 22C13.2957 21.1716 13.9672 20.5 14.7957 20.5C15.6241 20.5 16.2957 21.1716 16.2957 22Z" fill="#9871F5" stroke="#9871F5"/>
<path d="M29.0813 22C29.0813 22.8284 28.4097 23.5 27.5813 23.5C26.7529 23.5 26.0813 22.8284 26.0813 22C26.0813 21.1716 26.7529 20.5 27.5813 20.5C28.4097 20.5 29.0813 21.1716 29.0813 22Z" fill="#9871F5" stroke="#9871F5"/>
<path d="M41.8765 22C41.8765 22.8284 41.2049 23.5 40.3765 23.5C39.548 23.5 38.8765 22.8284 38.8765 22C38.8765 21.1716 39.548 20.5 40.3765 20.5C41.2049 20.5 41.8765 21.1716 41.8765 22Z" fill="#9871F5" stroke="#9871F5"/>
<path d="M54.6621 22C54.6621 22.8284 53.9905 23.5 53.1621 23.5C52.3337 23.5 51.6621 22.8284 51.6621 22C51.6621 21.1716 52.3337 20.5 53.1621 20.5C53.9905 20.5 54.6621 21.1716 54.6621 22Z" fill="#9871F5" stroke="#9871F5"/>
<path d="M67.4573 22C67.4573 22.8284 66.7857 23.5 65.9573 23.5C65.1288 23.5 64.4573 22.8284 64.4573 22C64.4573 21.1716 65.1288 20.5 65.9573 20.5C66.7857 20.5 67.4573 21.1716 67.4573 22Z" fill="#9871F5" stroke="#9871F5"/>
<path d="M3.5 32C3.5 32.8284 2.82843 33.5 2 33.5C1.17157 33.5 0.5 32.8284 0.5 32C0.5 31.1716 1.17157 30.5 2 30.5C2.82843 30.5 3.5 31.1716 3.5 32Z" fill="#9871F5" stroke="#9871F5"/>
<path d="M16.2957 32C16.2957 32.8284 15.6241 33.5 14.7957 33.5C13.9672 33.5 13.2957 32.8284 13.2957 32C13.2957 31.1716 13.9672 30.5 14.7957 30.5C15.6241 30.5 16.2957 31.1716 16.2957 32Z" fill="#9871F5" stroke="#9871F5"/>
<path d="M29.0813 32C29.0813 32.8284 28.4097 33.5 27.5813 33.5C26.7529 33.5 26.0813 32.8284 26.0813 32C26.0813 31.1716 26.7529 30.5 27.5813 30.5C28.4097 30.5 29.0813 31.1716 29.0813 32Z" fill="#9871F5" stroke="#9871F5"/>
<path d="M41.8765 32C41.8765 32.8284 41.2049 33.5 40.3765 33.5C39.548 33.5 38.8765 32.8284 38.8765 32C38.8765 31.1716 39.548 30.5 40.3765 30.5C41.2049 30.5 41.8765 31.1716 41.8765 32Z" fill="#9871F5" stroke="#9871F5"/>
<path d="M54.6621 32C54.6621 32.8284 53.9905 33.5 53.1621 33.5C52.3337 33.5 51.6621 32.8284 51.6621 32C51.6621 31.1716 52.3337 30.5 53.1621 30.5C53.9905 30.5 54.6621 31.1716 54.6621 32Z" fill="#9871F5" stroke="#9871F5"/>
<path d="M67.4573 32C67.4573 32.8284 66.7857 33.5 65.9573 33.5C65.1288 33.5 64.4573 32.8284 64.4573 32C64.4573 31.1716 65.1288 30.5 65.9573 30.5C66.7857 30.5 67.4573 31.1716 67.4573 32Z" fill="#9871F5" stroke="#9871F5"/>
</svg>
