<svg width="54" height="14" viewBox="0 0 54 14" fill="none" xmlns="http://www.w3.org/2000/svg">
<path fill-rule="evenodd" clip-rule="evenodd" d="M14 7C14 10.866 10.866 14 7 14C3.13401 14 0 10.866 0 7C0 3.13401 3.13401 0 7 0C10.866 0 14 3.13401 14 7ZM33.6 7C33.6 10.866 30.466 14 26.6 14C22.734 14 19.6 10.866 19.6 7C19.6 3.13401 22.734 0 26.6 0C30.466 0 33.6 3.13401 33.6 7ZM46.2001 14C50.0661 14 53.2001 10.866 53.2001 7C53.2001 3.13401 50.0661 0 46.2001 0C42.3341 0 39.2001 3.13401 39.2001 7C39.2001 10.866 42.3341 14 46.2001 14Z" fill="#7A57FD"/>
</svg>
