<svg width="133" height="23" viewBox="0 0 133 23" fill="none" xmlns="http://www.w3.org/2000/svg">
<path d="M10.5489 2.92705C10.8483 2.00574 12.1517 2.00574 12.4511 2.92705L13.8574 7.25532C13.9913 7.66734 14.3752 7.9463 14.8085 7.9463H19.3595C20.3282 7.9463 20.731 9.18592 19.9473 9.75532L16.2654 12.4303C15.9149 12.685 15.7683 13.1364 15.9021 13.5484L17.3085 17.8766C17.6078 18.798 16.5533 19.5641 15.7696 18.9947L12.0878 16.3197C11.7373 16.065 11.2627 16.065 10.9122 16.3197L7.23037 18.9947C6.44665 19.5641 5.39217 18.798 5.69153 17.8766L7.09787 13.5484C7.23174 13.1364 7.08508 12.685 6.7346 12.4303L3.05275 9.75532C2.26904 9.18592 2.67181 7.9463 3.64053 7.9463H8.19155C8.62477 7.9463 9.00873 7.66734 9.1426 7.25532L10.5489 2.92705Z" fill="#FFC908"/>
<path d="M38.5489 2.92705C38.8483 2.00574 40.1517 2.00574 40.4511 2.92705L41.8574 7.25532C41.9913 7.66734 42.3752 7.9463 42.8085 7.9463H47.3595C48.3282 7.9463 48.731 9.18592 47.9473 9.75532L44.2654 12.4303C43.9149 12.685 43.7683 13.1364 43.9021 13.5484L45.3085 17.8766C45.6078 18.798 44.5533 19.5641 43.7696 18.9947L40.0878 16.3197C39.7373 16.065 39.2627 16.065 38.9122 16.3197L35.2304 18.9947C34.4467 19.5641 33.3922 18.798 33.6915 17.8766L35.0979 13.5484C35.2317 13.1364 35.0851 12.685 34.7346 12.4303L31.0527 9.75532C30.269 9.18592 30.6718 7.9463 31.6405 7.9463H36.1915C36.6248 7.9463 37.0087 7.66734 37.1426 7.25532L38.5489 2.92705Z" fill="#FFC908"/>
<path d="M66.5489 2.92705C66.8483 2.00574 68.1517 2.00574 68.4511 2.92705L69.8574 7.25532C69.9913 7.66734 70.3752 7.9463 70.8085 7.9463H75.3595C76.3282 7.9463 76.731 9.18592 75.9473 9.75532L72.2654 12.4303C71.9149 12.685 71.7683 13.1364 71.9021 13.5484L73.3085 17.8766C73.6078 18.798 72.5533 19.5641 71.7696 18.9947L68.0878 16.3197C67.7373 16.065 67.2627 16.065 66.9122 16.3197L63.2304 18.9947C62.4467 19.5641 61.3922 18.798 61.6915 17.8766L63.0979 13.5484C63.2317 13.1364 63.0851 12.685 62.7346 12.4303L59.0527 9.75532C58.269 9.18592 58.6718 7.9463 59.6405 7.9463H64.1915C64.6248 7.9463 65.0087 7.66734 65.1426 7.25532L66.5489 2.92705Z" fill="#FFC908"/>
<path opacity="0.4" d="M94.5489 2.92705C94.8483 2.00574 96.1517 2.00574 96.4511 2.92705L97.8574 7.25532C97.9913 7.66734 98.3752 7.9463 98.8085 7.9463H103.359C104.328 7.9463 104.731 9.18592 103.947 9.75532L100.265 12.4303C99.9149 12.685 99.7683 13.1364 99.9021 13.5484L101.308 17.8766C101.608 18.798 100.553 19.5641 99.7696 18.9947L96.0878 16.3197C95.7373 16.065 95.2627 16.065 94.9122 16.3197L91.2304 18.9947C90.4467 19.5641 89.3922 18.798 89.6915 17.8766L91.0979 13.5484C91.2317 13.1364 91.0851 12.685 90.7346 12.4303L87.0527 9.75532C86.269 9.18592 86.6718 7.9463 87.6405 7.9463H92.1915C92.6248 7.9463 93.0087 7.66734 93.1426 7.25532L94.5489 2.92705Z" fill="#C4C4C4"/>
<path opacity="0.4" d="M120.549 2.92705C120.848 2.00574 122.152 2.00574 122.451 2.92705L123.857 7.25532C123.991 7.66734 124.375 7.9463 124.808 7.9463H129.359C130.328 7.9463 130.731 9.18592 129.947 9.75532L126.265 12.4303C125.915 12.685 125.768 13.1364 125.902 13.5484L127.308 17.8766C127.608 18.798 126.553 19.5641 125.77 18.9947L122.088 16.3197C121.737 16.065 121.263 16.065 120.912 16.3197L117.23 18.9947C116.447 19.5641 115.392 18.798 115.692 17.8766L117.098 13.5484C117.232 13.1364 117.085 12.685 116.735 12.4303L113.053 9.75532C112.269 9.18592 112.672 7.9463 113.641 7.9463H118.192C118.625 7.9463 119.009 7.66734 119.143 7.25532L120.549 2.92705Z" fill="#C4C4C4"/>
</svg>
