<svg width="24" height="24" viewBox="0 0 24 24" fill="none" xmlns="http://www.w3.org/2000/svg">
<path fill-rule="evenodd" clip-rule="evenodd" d="M5.4 5.9C4 7.4 3 9.5 3 12.2C3 14.2 3.7 16.1 4.8 17.6C6.1 19.3 8 20.3 9 20.7V20C9 20 9 18.4 9.9 17C7.9 16.9 6.3 15 6.3 12.8C6.3 12 6.6 11.3 7.1 10.7L7.2 8.8C7.2 8.3 7.7 8 8.2 8.1L10.3 8.9C10.9 8.8 11.5 8.7 12.2 8.7C12.9 8.7 13.5 8.8 14.1 8.9L15.9 8C16.4 7.8 16.9 8.2 16.9 8.7L17 10.6C17.5 11.2 17.8 12 17.8 12.7C17.8 14.9 16.2 16.7 14.2 16.9C15.1 18.3 15.1 19.9 15.1 19.9V20.6C16.1 20.2 18 19.2 19.3 17.5C20.4 16.1 21.1 14.1 21.1 12.1C21.1 9.4 20.1 7.3 18.7 5.8C16.8 3.9 14.2 3 12 3C9.8 3 7.2 3.9 5.4 5.9V5.9Z" stroke="#744FF4" stroke-width="2" stroke-linecap="round" stroke-linejoin="round"/>
</svg>
