<svg width="24" height="24" viewBox="0 0 24 24" fill="none" xmlns="http://www.w3.org/2000/svg">
<g opacity="0.5">
<path fill-rule="evenodd" clip-rule="evenodd" d="M0 0H24V24H0V0Z" fill="white" fill-opacity="0.01"/>
<path d="M16.954 17.411L20.543 21M13.418 18.825C12.7999 18.9419 12.1721 19.0005 11.543 19C7.065 19 3.275 16.057 2 12C2.34327 10.9081 2.87199 9.88346 3.563 8.971L13.418 18.825ZM9.421 9.879C9.98366 9.31634 10.7468 9.00025 11.5425 9.00025C12.3382 9.00025 13.1013 9.31634 13.664 9.879C14.2267 10.4417 14.5428 11.2048 14.5428 12.0005C14.5428 12.7962 14.2267 13.5593 13.664 14.122L9.421 9.879ZM9.421 9.878L13.663 14.12L9.421 9.878ZM9.423 9.88L6.133 6.59L9.423 9.88ZM13.665 14.122L16.955 17.412L13.665 14.122ZM2.543 3L6.133 6.59L2.543 3ZM6.133 6.59C7.74536 5.54957 9.6241 4.9974 11.543 5C16.021 5 19.811 7.943 21.086 12C20.382 14.2305 18.9204 16.1446 16.954 17.411L6.133 6.59Z" stroke="#BBA8F2" stroke-width="2" stroke-linecap="round" stroke-linejoin="round"/>
</g>
</svg>
